<?xml version="1.0" encoding="iso-8859-1"?>
<!-- Uploaded to: SVG Repo, www.svgrepo.com, Generator: SVG Repo Mixer Tools -->
<svg height="800px" width="800px" version="1.1" id="Layer_1" xmlns="http://www.w3.org/2000/svg" xmlns:xlink="http://www.w3.org/1999/xlink" 
	 viewBox="0 0 511.973 511.973" xml:space="preserve">
<path style="fill:#FC6E51;" d="M490.639,213.769H21.333c-5.89,0-10.671,4.766-10.671,10.656v255.992
	c0,5.891,4.781,10.672,10.671,10.672H490.64c5.891,0,10.672-4.781,10.672-10.672V224.425
	C501.311,218.535,496.53,213.769,490.639,213.769z"/>
<g>
	<path style="fill:#E9573F;" d="M85.331,277.767h-42.67c-5.891,0-10.656,4.766-10.656,10.656v42.671
		c0,5.891,4.765,10.671,10.656,10.671h42.67c5.891,0,10.672-4.78,10.672-10.671v-42.671
		C96.003,282.533,91.221,277.767,85.331,277.767z"/>
	<path style="fill:#E9573F;" d="M85.331,352.422h-42.67c-5.891,0-10.656,4.781-10.656,10.671v42.672
		c0,5.89,4.765,10.655,10.656,10.655h42.67c5.891,0,10.672-4.766,10.672-10.655v-42.672
		C96.003,357.203,91.221,352.422,85.331,352.422z"/>
	<path style="fill:#E9573F;" d="M469.313,277.767h-42.672c-5.89,0-10.655,4.766-10.655,10.656v42.671
		c0,5.891,4.766,10.671,10.655,10.671h42.672c5.89,0,10.671-4.78,10.671-10.671v-42.671
		C479.984,282.533,475.203,277.767,469.313,277.767z"/>
	<path style="fill:#E9573F;" d="M469.313,352.422h-42.672c-5.89,0-10.655,4.781-10.655,10.671v42.672
		c0,5.89,4.766,10.655,10.655,10.655h42.672c5.89,0,10.671-4.766,10.671-10.655v-42.672
		C479.984,357.203,475.203,352.422,469.313,352.422z"/>
</g>
<path style="fill:#434A54;" d="M383.987,277.767H128.002c-5.906,0-10.671,4.766-10.671,10.656v202.666h277.313V288.424
	C394.643,282.533,389.862,277.767,383.987,277.767z"/>
<path style="fill:#FFCE54;" d="M383.987,277.767H128.002c-5.906,0-10.671,4.766-10.671,10.656v74.669h277.313v-74.669
	C394.643,282.533,389.862,277.767,383.987,277.767z"/>
<path style="fill:#F6BB42;" d="M341.316,331.094h-170.66c-5.89,0-10.656-4.781-10.656-10.672s4.766-10.656,10.656-10.656h170.66
	c5.891,0,10.672,4.766,10.672,10.656S347.207,331.094,341.316,331.094z"/>
<path style="fill:#656D78;" d="M501.311,235.097H10.661c-3.688,0-7.125-1.922-9.062-5.062c-1.953-3.14-2.125-7.062-0.469-10.375
	l21.328-42.671c1.812-3.609,5.5-5.891,9.547-5.891h447.979c4.031,0,7.719,2.281,9.53,5.891l21.328,42.671
	c1.656,3.312,1.484,7.234-0.453,10.375C508.436,233.175,504.999,235.097,501.311,235.097z"/>
<path style="fill:#FC6E51;" d="M255.998,20.884c-47.061,0-85.341,38.468-85.341,85.763c0,47.312,38.28,85.779,85.341,85.779
	c47.038,0,85.318-38.468,85.318-85.779C341.316,59.352,303.036,20.884,255.998,20.884z"/>
<path style="fill:#FFCE54;" d="M288.676,108.913c-15.452-16.437-7.062-44.592-6.999-44.842c1.188-3.75,0.203-7.828-2.531-10.64
	s-6.797-3.891-10.569-2.812c-27.172,7.766-44.703,29.952-48.5,60.498c-2.718-2.219-6.406-3-9.859-1.953
	c-4.156,1.266-7.141,4.938-7.516,9.281c-2.343,26.843,1.906,45.905,12.984,58.248c9.015,10.031,22.03,15.094,39.764,15.453
	c0.406,0,0.828,0.016,1.234,0.016c15.398,0,36.304-11.516,44.647-30.796C305.645,151.396,309.739,131.319,288.676,108.913z"/>
</svg>