<?xml version="1.0" encoding="iso-8859-1"?>
<!-- Uploaded to: SVG Repo, www.svgrepo.com, Generator: SVG Repo Mixer Tools -->
<svg height="800px" width="800px" version="1.1" id="Layer_1" xmlns="http://www.w3.org/2000/svg" xmlns:xlink="http://www.w3.org/1999/xlink" 
	 viewBox="0 0 512 512" xml:space="preserve">
<g>
	<path style="fill:#39493F;" d="M79.448,233.93c-4.882,0-8.828-3.946-8.828-8.828V57.378c0-4.882,3.946-8.828,8.828-8.828
		c4.882,0,8.828,3.946,8.828,8.828v167.724C88.276,229.984,84.33,233.93,79.448,233.93L79.448,233.93z"/>
	<path style="fill:#5E7767;" d="M459.034,392.793H52.966C23.711,392.793,0,369.082,0,339.828l0,0
		c0-29.255,23.711-52.966,52.966-52.966h406.069c29.255,0,52.966,23.711,52.966,52.966l0,0
		C512,369.082,488.289,392.793,459.034,392.793"/>
	<g>
		<path style="fill:#39493F;" d="M388.414,286.862H105.931v-59.507c0-25.635,20.789-46.424,46.424-46.424h54.643
			c59.021,0,114.979,26.209,152.761,71.548L388.414,286.862z"/>
		<path style="fill:#39493F;" d="M370.759,145.62H238.345c-4.882,0-8.828-3.946-8.828-8.828s3.946-8.828,8.828-8.828h132.414
			c4.882,0,8.828,3.946,8.828,8.828S375.64,145.62,370.759,145.62"/>
		<path style="fill:#39493F;" d="M459.034,392.793H52.966c-26.236,0-47.96-19.094-52.171-44.138H0v25.591
			c0,49.267,39.936,89.203,89.203,89.203h333.594c49.267,0,89.203-39.936,89.203-89.203v-25.591h-0.794
			C506.995,373.699,485.27,392.793,459.034,392.793"/>
	</g>
	<path style="fill:#1D281F;" d="M467.862,392.793c0,19.5-15.81,35.31-35.31,35.31c-19.5,0-35.31-15.81-35.31-35.31
		c0,19.5-15.81,35.31-35.31,35.31c-19.5,0-35.31-15.81-35.31-35.31c0,19.5-15.81,35.31-35.31,35.31c-19.5,0-35.31-15.81-35.31-35.31
		c0,19.5-15.81,35.31-35.31,35.31s-35.31-15.81-35.31-35.31c0,19.5-15.81,35.31-35.31,35.31s-35.31-15.81-35.31-35.31
		c0,19.5-15.81,35.31-35.31,35.31s-35.31-15.81-35.31-35.31H467.862z"/>
	<g>
		<path style="fill:#5E7767;" d="M105.931,286.862H52.966v-38.841c0-12.676,10.275-22.952,22.952-22.952h30.014V286.862z"/>
		<path style="fill:#5E7767;" d="M211.862,181.066v5.906c0,35.663,28.919,64.583,64.583,64.583h82.503
			C322.225,208.043,268.668,182.452,211.862,181.066"/>
		<path style="fill:#5E7767;" d="M203.034,154.448h16.711c8.792,0,16.949-6.012,18.361-14.689
			c1.792-11.061-6.691-20.621-17.417-20.621h-17.655h-33.377c-31.974,0-49.231,37.508-28.416,61.793l0,0h61.793V154.448z"/>
	</g>
	<g>
		<path style="fill:#39493F;" d="M450.207,331.034H61.793c-4.882,0-8.828-3.946-8.828-8.828c0-4.882,3.946-8.828,8.828-8.828
			h388.414c4.882,0,8.828,3.946,8.828,8.828C459.034,327.088,455.089,331.034,450.207,331.034"/>
		<path style="fill:#39493F;" d="M450.207,366.344H61.793c-4.882,0-8.828-3.946-8.828-8.828s3.946-8.828,8.828-8.828h388.414
			c4.882,0,8.828,3.946,8.828,8.828S455.089,366.344,450.207,366.344"/>
	</g>
</g>
</svg>