<?xml version="1.0" encoding="UTF-8" standalone="no"?>
<svg
   version="1.1"
   width="40px"
   height="40px"
   viewBox="0 0 43.1 42.3"
   style="enable-background:new 0 0 43.1 42.3;"
   xml:space="preserve"
   id="svg2"
   sodipodi:docname="icon-breach.svg"
   inkscape:version="1.4 (86a8ad7, 2024-10-11)"
   xmlns:inkscape="http://www.inkscape.org/namespaces/inkscape"
   xmlns:sodipodi="http://sodipodi.sourceforge.net/DTD/sodipodi-0.dtd"
   xmlns="http://www.w3.org/2000/svg"
   xmlns:svg="http://www.w3.org/2000/svg"><defs
   id="defs2" /><sodipodi:namedview
   id="namedview2"
   pagecolor="#ffffff"
   bordercolor="#000000"
   borderopacity="0.25"
   inkscape:showpageshadow="2"
   inkscape:pageopacity="0.0"
   inkscape:pagecheckerboard="0"
   inkscape:deskcolor="#d1d1d1"
   showgrid="false"
   inkscape:zoom="16"
   inkscape:cx="15.15625"
   inkscape:cy="7.96875"
   inkscape:window-width="3840"
   inkscape:window-height="2054"
   inkscape:window-x="1909"
   inkscape:window-y="-11"
   inkscape:window-maximized="1"
   inkscape:current-layer="svg2" />
	<path
   style="fill:#fff;stroke:#000;stroke-miterlimit:10;"
   d="M34.6,0.5H8.5c-4.4,0-8,3.6-8,8v18.9c0,4.4,3.6,8,8,8h6l7.1,6.3l7.1-6.3h6c4.4,0,8-3.6,8-8V8.5  C42.6,4.1,39,0.5,34.6,0.5z"
   id="path1" />
	<path
   style="stroke-width:0.363764"
   d="m 39.000397,28.950996 0.0088,-0.0058 -11.255031,-22.5071192 -0.0047,0.0031 c -0.247835,-0.5870989 -0.765121,-0.995559 -1.369073,-0.995559 -0.461497,0 -3.147511,0.5792701 -3.694962,3.3983635 -0.200573,1.0328483 -1.202064,3.5923657 -2.612918,5.3932307 -2.806354,3.536417 -4.87806,4.777765 -7.119816,6.395088 l -4.0900083,7.881702 h -0.024036 v 0.04769 L 8.321077,29.596714 c -0.059922,0.09068 -0.096483,0.202471 -0.096483,0.325204 0,0.298626 0.2095551,0.540575 0.4678594,0.540575 0.051457,0 0.099869,-0.01172 0.1462484,-0.0297 v 0.03557 h 5.7551442 6.770757 16.926896 v -0.01955 c 0.456687,-0.04222 0.816891,-0.478426 0.816891,-1.016655 3.39e-4,-0.17511 -0.0413,-0.336931 -0.107993,-0.481162 z"
   id="path2"
   sodipodi:nodetypes="ccccssccccccsscccccccc" />
<path
   style="fill:#000000;stroke-width:1.36007"
   d="m 7.7223493,9.2698706 c -0.165039,0.9102454 0.1418475,2.1240794 0.8934066,2.9147484 0.83816,0.881778 2.6008051,-0.199095 2.6008051,-0.965833 0.189183,-0.65595 0.08262,-1.2690802 -0.03971,-1.8799272 C 11.107666,8.9581102 10.667587,7.6815351 9.3218948,8.1869935 8.0303357,8.4283628 8.0209782,8.5913639 7.7223493,9.2698706 Z"
   id="path7"
   sodipodi:nodetypes="cscccc" /><path
   style="fill:#000000;stroke-width:1.54686"
   d="m 14.408311,12.851099 c -1.271539,0.826963 -0.883014,1.025435 -0.812373,1.58777 0.07064,0.562336 1.589425,0.926201 1.730706,0.926201 0.141285,0 1.165578,0.363863 1.554104,-0.363865 0.388526,-0.727729 0.777052,-0.628493 0.388526,-1.720086 -0.388526,-1.091592 -1.34218,-1.223906 -1.660065,-1.223906 -0.317885,0 -1.200898,0.793886 -1.200898,0.793886 z"
   id="path8" /><path
   style="fill:#000000;stroke-width:1.0775"
   d="m 19.250301,4.7000429 c -1.071433,0.047619 -1.047624,-0.2619058 -1.142862,0.5952402 -0.09524,0.8571461 -0.238096,1.5714344 0.428574,1.9047689 0.666669,0.3333346 1.071432,0.5952403 1.523814,0.1428577 C 20.51221,6.8905271 20.774116,6.3190964 20.631258,6.0571907 20.488401,5.795285 20.51221,4.747662 20.155067,4.6762333 c -0.357145,-0.071429 -0.904766,0.023809 -0.904766,0.02381 z"
   id="path9" /><path
   style="fill:#000000;stroke-width:1.0775"
   d="m 18.964585,9.6762518 c 0,0 -0.190476,-0.2142868 -0.452382,0.261905 -0.261906,0.4761922 -0.09524,1.0238142 0.190476,1.0952422 0.285716,0.07143 0.476193,0.190477 0.571431,-0.261906 0.09524,-0.452382 0.07143,-0.7857162 0.07143,-0.7857162 z"
   id="path10" /><path
   style="fill:#000000;stroke-width:1.65542"
   d="m 7.4508427,13.135375 c -2.0845271,0.538244 -3.6035845,1.692878 -3.1206301,3.24168 0.4829547,1.548804 0.1857517,2.305194 2.5633746,2.845476 2.3776228,0.54028 3.4921338,2.629361 3.8264868,-0.432224 0.334353,-3.061588 1.427207,-3.853468 -0.148601,-4.826503 -1.1870139,-0.73296 -2.8529171,-0.914947 -3.1206303,-0.828429 z"
   id="path11"
   sodipodi:nodetypes="cssssc" /><path
   style="fill:#000000;stroke-width:1.36331"
   d="m 13.471577,5.7905938 c -1.773358,0.7036678 -1.547658,1.6043626 -1.354201,2.4769104 0.193458,0.8725481 0.419158,2.0265648 1.741115,2.0265648 1.321958,0 2.514943,0.112588 2.579428,-0.5066422 0.06447,-0.6192273 0.515885,-1.0977209 0.128974,-1.7732424 C 16.179976,7.338663 16.437919,5.7343004 15.825306,5.6780071 15.212691,5.621714 13.471577,5.7905935 13.471577,5.7905938 Z"
   id="path12"
   sodipodi:nodetypes="cssccsc" /></svg>
