<svg xmlns="http://www.w3.org/2000/svg" xmlns:xlink="http://www.w3.org/1999/xlink" version="1.1" width="40px" height="40px" viewBox="0 0 43.1 42.3" style="enable-background:new 0 0 43.1 42.3;" xml:space="preserve">
	<path style="fill:#fff;stroke:#000;stroke-miterlimit:10;" d="M34.6,0.5H8.5c-4.4,0-8,3.6-8,8v18.9c0,4.4,3.6,8,8,8h6l7.1,6.3l7.1-6.3h6c4.4,0,8-3.6,8-8V8.5  C42.6,4.1,39,0.5,34.6,0.5z"/>
	<path style="transform: scale(0.35) translateX(10px);" d="M95.294,78.127l0.026-0.015L62.074,20.53l-0.014,0.008c-0.732-1.502-2.26-2.547-4.044-2.547   c-1.831,0-3.4,1.096-4.107,2.664L31.784,58.975l-5.417-9.382l-0.007,0.004c-0.386-0.792-1.191-1.344-2.133-1.344   c-0.964,0-1.791,0.578-2.164,1.402L6.271,77.009H6.2v0.122l-1.529,2.648c-0.177,0.232-0.285,0.518-0.285,0.832   c0,0.764,0.619,1.383,1.382,1.383c0.152,0,0.295-0.03,0.432-0.076v0.091h17h20h50v-0.05c1.349-0.108,2.413-1.224,2.413-2.601   C95.614,78.91,95.491,78.496,95.294,78.127z"/>
</svg>